<mxfile host="app.diagrams.net" modified="2023-09-13T23:33:43.403Z" agent="Mozilla/5.0 (Windows NT 10.0; Win64; x64) AppleWebKit/537.36 (KHTML, like Gecko) Chrome/116.0.0.0 Safari/537.36 Edg/116.0.1938.76" etag="dmcEN75LerJjfy8XjkkQ" version="21.7.5" type="github">
  <diagram name="Page-1" id="oPKkR_xUtgPrSfdaGLMg">
    <mxGraphModel dx="1042" dy="535" grid="1" gridSize="10" guides="1" tooltips="1" connect="1" arrows="1" fold="1" page="1" pageScale="1" pageWidth="850" pageHeight="1400" math="0" shadow="0">
      <root>
        <mxCell id="0" />
        <mxCell id="1" parent="0" />
        <mxCell id="GmO8U72DKDznni9sk3yR-3" value="" style="sketch=0;points=[[0,0,0],[0.25,0,0],[0.5,0,0],[0.75,0,0],[1,0,0],[0,1,0],[0.25,1,0],[0.5,1,0],[0.75,1,0],[1,1,0],[0,0.25,0],[0,0.5,0],[0,0.75,0],[1,0.25,0],[1,0.5,0],[1,0.75,0]];outlineConnect=0;fontColor=#232F3E;fillColor=#C925D1;strokeColor=#ffffff;dashed=0;verticalLabelPosition=bottom;verticalAlign=top;align=center;html=1;fontSize=12;fontStyle=0;aspect=fixed;shape=mxgraph.aws4.resourceIcon;resIcon=mxgraph.aws4.database;" vertex="1" parent="1">
          <mxGeometry x="570" y="170" width="78" height="78" as="geometry" />
        </mxCell>
        <mxCell id="GmO8U72DKDznni9sk3yR-8" value="" style="image;points=[];aspect=fixed;html=1;align=center;shadow=0;dashed=0;image=img/lib/allied_telesis/computer_and_terminals/Personal_Computer_Wireless.svg;rotation=-10;" vertex="1" parent="1">
          <mxGeometry x="30" y="230" width="109.91" height="112" as="geometry" />
        </mxCell>
        <mxCell id="GmO8U72DKDznni9sk3yR-9" value="" style="endArrow=diamondThin;endFill=1;endSize=24;html=1;rounded=0;" edge="1" parent="1" source="GmO8U72DKDznni9sk3yR-8">
          <mxGeometry width="160" relative="1" as="geometry">
            <mxPoint x="340" y="280" as="sourcePoint" />
            <mxPoint x="560" y="230" as="targetPoint" />
          </mxGeometry>
        </mxCell>
        <mxCell id="GmO8U72DKDznni9sk3yR-1" value="" style="image;aspect=fixed;perimeter=ellipsePerimeter;html=1;align=center;shadow=0;dashed=0;spacingTop=3;image=img/lib/active_directory/firewall.svg;" vertex="1" parent="1">
          <mxGeometry x="340" y="120" width="146.4" height="240" as="geometry" />
        </mxCell>
        <mxCell id="GmO8U72DKDznni9sk3yR-5" value="" style="endArrow=classic;html=1;rounded=0;" edge="1" parent="1">
          <mxGeometry width="50" height="50" relative="1" as="geometry">
            <mxPoint x="200" y="420" as="sourcePoint" />
            <mxPoint x="410" y="400" as="targetPoint" />
            <Array as="points">
              <mxPoint x="410" y="300" />
            </Array>
          </mxGeometry>
        </mxCell>
        <mxCell id="GmO8U72DKDznni9sk3yR-10" value="FIREWALL" style="text;html=1;strokeColor=none;fillColor=none;align=center;verticalAlign=middle;whiteSpace=wrap;rounded=0;" vertex="1" parent="1">
          <mxGeometry x="395" y="120" width="60" height="30" as="geometry" />
        </mxCell>
        <mxCell id="GmO8U72DKDznni9sk3yR-11" value="COMPUTER" style="text;html=1;strokeColor=none;fillColor=none;align=center;verticalAlign=middle;whiteSpace=wrap;rounded=0;" vertex="1" parent="1">
          <mxGeometry x="30" y="342" width="60" height="30" as="geometry" />
        </mxCell>
        <mxCell id="GmO8U72DKDznni9sk3yR-12" value="DATABASE" style="text;html=1;strokeColor=none;fillColor=none;align=center;verticalAlign=middle;whiteSpace=wrap;rounded=0;" vertex="1" parent="1">
          <mxGeometry x="579" y="260" width="60" height="30" as="geometry" />
        </mxCell>
        <mxCell id="GmO8U72DKDznni9sk3yR-13" value="Restricted access" style="text;html=1;strokeColor=none;fillColor=none;align=center;verticalAlign=middle;whiteSpace=wrap;rounded=0;" vertex="1" parent="1">
          <mxGeometry x="340" y="350" width="60" height="30" as="geometry" />
        </mxCell>
        <mxCell id="GmO8U72DKDznni9sk3yR-14" value="Permitted access" style="text;html=1;strokeColor=none;fillColor=none;align=center;verticalAlign=middle;whiteSpace=wrap;rounded=0;" vertex="1" parent="1">
          <mxGeometry x="190" y="230" width="60" height="30" as="geometry" />
        </mxCell>
      </root>
    </mxGraphModel>
  </diagram>
</mxfile>
